<svg width="150" height="150" viewBox="0 0 150 150" fill="none" xmlns="http://www.w3.org/2000/svg">
<ellipse cx="76" cy="84.5" rx="65" ry="64.5" fill="white"/>
<path d="M102.36 48.5898C99.44 47.9198 95.99 50.8698 95.8 52.8598C116.09 70.7698 116.71 90.2998 114.78 102.1L112.28 101.7C115.68 83.5098 109.08 69.2398 99.3 59.8598C93.61 53.6698 85.2 48.4898 79.63 45.7698C73.79 43.4498 68.58 41.9698 62.26 42.3298C66.76 46.2698 66.66 54.7398 61.96 60.0498C65.03 50.9498 61.3 44.8998 57.9 41.8398C53.66 42.2498 44.37 44.5998 40.94 47.1998C40.95 47.6398 41.12 49.1498 41.45 50.1598C43.87 52.1998 45.51 53.2198 49.24 55.5298C47.11 55.3898 45.97 55.0298 43.68 54.5798C60.02 80.0898 97.62 64.4898 110.21 84.7898C100.63 77.5898 84.06 74.1698 78.57 74.5798C79.92 76.0398 81.94 77.7898 83.62 79.0498C73.43 77.5598 69.12 77.6298 64.63 75.1698C61.55 73.7698 60.17 70.8998 55.33 68.6898C48.69 65.6798 40.15 59.2498 38.9 46.4298C49.1 40.6798 69.12 33.8198 102.36 48.5898Z" fill="#9CC0AC" stroke="#001010" stroke-width="0.0022078" stroke-linecap="square"/>
<path d="M100.29 100.31C98.21 100.11 93.53 100.11 92.55 99.8699C99.9 98.5699 104.93 95.8798 109.38 89.0898C109.7 93.5598 105.65 97.0398 100.29 100.31Z" fill="#9CC0AC" stroke="#001010" stroke-width="0.0022078" stroke-linecap="square"/>
<path d="M109.1 120.45C107.06 125.14 104.01 129.8 102.22 132.77C102.027 132.75 101.717 132.677 101.29 132.55C101.71 124.53 101.51 119.31 101.34 116.85C103.18 117.57 106.26 118.93 109.1 120.45Z" fill="#9CC0AC" stroke="#001010" stroke-width="0.0022078" stroke-linecap="square"/>
<path d="M137.18 106.59C136.58 111.96 129.61 122.02 123.35 128.8C115.68 123.32 99.9 115.01 82.75 110.01C64.97 105.51 53.3 104.63 35.46 108.04C44.54 104.32 57.54 98.91 89.2 99.87C106.26 100.01 120.28 102.76 137.18 106.59Z" fill="#18A2A6" stroke="#001010" stroke-width="0.0022078" stroke-linecap="square"/>
<path d="M113.01 137.35C102.25 129.73 61.34 123.96 36.29 135.33C60.06 153.23 88.29 152.09 113.01 137.35Z" fill="#18A2A6" stroke="#001010" stroke-width="0.0022078" stroke-linecap="square"/>
<path d="M31.76 131.75C29.22 130.42 22.23 123.26 19.76 117.83C36.07 114.1 61.89 110.73 82.87 123.67C56.57 120.65 43.91 123.11 31.76 131.75Z" fill="#18A2A6" stroke="#001010" stroke-width="0.0022078" stroke-linecap="square"/>
<path d="M16.23 110.59C14.74 107.31 11.45 100.79 10.54 90.1407C15.77 88.2707 48.19 82.9107 70.85 91.9107C50.53 92.4207 29.95 100.61 16.23 110.59Z" fill="#C6C183" stroke="#001010" stroke-width="0.0022078" stroke-linecap="square"/>
<path d="M140.62 95.2004C146.72 3.74034 24.1 -8.12966 10.1 81.2104L14.1 81.5404C29.01 -1.89967 140.51 9.16034 136.58 94.8504L140.62 95.2004Z" fill="#C6C183" stroke="#001010" stroke-width="0.0022078" stroke-linecap="square"/>
<path d="M50.9 46.6494C52.23 46.6494 53.31 47.5894 53.31 48.7494C53.31 49.8994 52.23 50.8394 50.9 50.8394C49.57 50.8394 48.49 49.8994 48.49 48.7494C48.49 47.5894 49.57 46.6494 50.9 46.6494Z" fill="#9AC1AB" stroke="#001010" stroke-width="0.0022078" stroke-linecap="square"/>
</svg>
